<svg xmlns="http://www.w3.org/2000/svg" xmlns:xlink="http://www.w3.org/1999/xlink" width="400" zoomAndPan="magnify" viewBox="0 0 300 299.999988" height="400" preserveAspectRatio="xMidYMid meet" version="1.0"><defs><clipPath id="1d857021ea"><path d="M 10.3125 0 L 290.0625 0 L 290.0625 300 L 10.3125 300 Z M 10.3125 0 " clip-rule="nonzero"/></clipPath></defs><path fill="#3b88f5" d="M 241.648438 93.007812 L 58.550781 93.007812 C 53.621094 93.007812 49.574219 97.050781 49.574219 101.976562 L 49.574219 128.875 C 49.574219 133.796875 53.621094 137.84375 58.550781 137.84375 L 241.648438 137.84375 C 246.753906 137.84375 250.800781 133.796875 250.800781 128.875 L 250.800781 101.976562 C 250.800781 97.050781 246.753906 93.007812 241.648438 93.007812 Z M 241.648438 93.007812 " fill-opacity="1" fill-rule="evenodd"/><path fill="#cff5ff" d="M 241.648438 137.84375 L 58.550781 137.84375 C 53.621094 137.84375 49.574219 133.796875 49.574219 128.875 L 49.574219 101.976562 C 49.574219 97.050781 53.621094 93.007812 58.550781 93.007812 L 241.648438 93.007812 C 246.753906 93.007812 250.800781 97.050781 250.800781 101.976562 L 250.800781 128.875 C 250.800781 133.796875 246.753906 137.84375 241.648438 137.84375 Z M 287.070312 234.191406 L 287.070312 77.710938 L 13.304688 77.710938 L 13.304688 234.191406 C 13.304688 247.550781 24.222656 258.628906 37.777344 258.628906 L 98.515625 258.628906 L 98.515625 171.773438 C 98.515625 161.402344 121.578125 152.960938 150.097656 152.960938 C 178.621094 152.960938 201.859375 161.402344 201.859375 171.773438 L 201.859375 258.628906 L 262.597656 258.628906 C 275.976562 258.628906 287.070312 247.550781 287.070312 234.191406 Z M 287.070312 234.191406 " fill-opacity="1" fill-rule="evenodd"/><path fill="#3b88f5" d="M 150.097656 190.585938 C 121.578125 190.585938 98.515625 182.148438 98.515625 171.773438 L 98.515625 207.289062 C 98.515625 217.664062 121.578125 226.101562 150.097656 226.101562 C 178.621094 226.101562 201.859375 217.664062 201.859375 207.289062 L 201.859375 171.773438 C 201.859375 182.148438 178.621094 190.585938 150.097656 190.585938 Z M 114.007812 195.863281 C 117.53125 195.863281 120.347656 198.851562 120.347656 202.191406 C 120.347656 205.707031 117.53125 208.519531 114.007812 208.519531 C 110.488281 208.519531 107.671875 205.707031 107.671875 202.191406 C 107.671875 198.851562 110.488281 195.863281 114.007812 195.863281 Z M 114.007812 195.863281 " fill-opacity="1" fill-rule="evenodd"/><path fill="#59a4f9" d="M 98.515625 171.773438 C 98.515625 182.148438 121.578125 190.585938 150.097656 190.585938 C 178.621094 190.585938 201.859375 182.148438 201.859375 171.773438 C 201.859375 161.402344 178.621094 152.960938 150.097656 152.960938 C 121.578125 152.960938 98.515625 161.402344 98.515625 171.773438 Z M 98.515625 171.773438 " fill-opacity="1" fill-rule="evenodd"/><path fill="#59a4f9" d="M 150.097656 226.101562 C 121.578125 226.101562 98.515625 217.664062 98.515625 207.289062 L 98.515625 242.804688 C 98.515625 253.179688 121.578125 261.617188 150.097656 261.617188 C 178.621094 261.617188 201.859375 253.179688 201.859375 242.804688 L 201.859375 207.289062 C 201.859375 217.664062 178.621094 226.101562 150.097656 226.101562 Z M 114.007812 232.082031 C 117.53125 232.082031 120.347656 234.894531 120.347656 238.410156 C 120.347656 241.925781 117.53125 244.738281 114.007812 244.738281 C 110.488281 244.738281 107.671875 241.925781 107.671875 238.410156 C 107.671875 234.894531 110.488281 232.082031 114.007812 232.082031 Z M 114.007812 232.082031 " fill-opacity="1" fill-rule="evenodd"/><path fill="#3b88f5" d="M 150.097656 261.617188 C 121.578125 261.617188 98.515625 253.179688 98.515625 242.804688 L 98.515625 278.320312 C 98.515625 288.695312 121.578125 297.132812 150.097656 297.132812 C 178.621094 297.132812 201.859375 288.695312 201.859375 278.320312 L 201.859375 242.804688 C 201.859375 253.179688 178.621094 261.617188 150.097656 261.617188 Z M 114.007812 268.125 C 117.53125 268.125 120.347656 270.9375 120.347656 274.453125 C 120.347656 277.96875 117.53125 280.78125 114.007812 280.78125 C 110.488281 280.78125 107.671875 277.96875 107.671875 274.453125 C 107.671875 270.9375 110.488281 268.125 114.007812 268.125 Z M 114.007812 268.125 " fill-opacity="1" fill-rule="evenodd"/><path fill="#59a4f9" d="M 120.347656 274.453125 C 120.347656 270.9375 117.53125 268.125 114.007812 268.125 C 110.488281 268.125 107.671875 270.9375 107.671875 274.453125 C 107.671875 277.96875 110.488281 280.78125 114.007812 280.78125 C 117.53125 280.78125 120.347656 277.96875 120.347656 274.453125 Z M 120.347656 274.453125 " fill-opacity="1" fill-rule="evenodd"/><path fill="#3b88f5" d="M 114.007812 244.738281 C 117.53125 244.738281 120.347656 241.925781 120.347656 238.410156 C 120.347656 234.894531 117.53125 232.082031 114.007812 232.082031 C 110.488281 232.082031 107.671875 234.894531 107.671875 238.410156 C 107.671875 241.925781 110.488281 244.738281 114.007812 244.738281 Z M 114.007812 244.738281 " fill-opacity="1" fill-rule="evenodd"/><path fill="#59a4f9" d="M 107.671875 202.191406 C 107.671875 205.707031 110.488281 208.519531 114.007812 208.519531 C 117.53125 208.519531 120.347656 205.707031 120.347656 202.191406 C 120.347656 198.851562 117.53125 195.863281 114.007812 195.863281 C 110.488281 195.863281 107.671875 198.851562 107.671875 202.191406 Z M 107.671875 202.191406 " fill-opacity="1" fill-rule="evenodd"/><path fill="#3b88f5" d="M 13.304688 77.710938 L 175.980469 77.710938 L 149.921875 32.878906 L 137.070312 32.878906 L 126.15625 13.539062 C 123.339844 8.441406 121.402344 2.988281 115.59375 2.988281 L 23.867188 2.988281 C 18.058594 2.988281 13.304688 7.738281 13.304688 13.539062 Z M 106.964844 49.757812 C 100.101562 49.757812 94.464844 44.132812 94.464844 37.273438 C 94.464844 30.417969 100.101562 24.792969 106.964844 24.792969 C 113.832031 24.792969 119.289062 30.417969 119.289062 37.273438 C 119.289062 44.132812 113.832031 49.757812 106.964844 49.757812 Z M 72.8125 24.792969 C 79.679688 24.792969 85.3125 30.417969 85.3125 37.273438 C 85.3125 44.132812 79.679688 49.757812 72.8125 49.757812 C 65.945312 49.757812 60.488281 44.132812 60.488281 37.273438 C 60.488281 30.417969 65.945312 24.792969 72.8125 24.792969 Z M 38.832031 24.792969 C 45.699219 24.792969 51.15625 30.417969 51.15625 37.273438 C 51.15625 44.132812 45.699219 49.757812 38.832031 49.757812 C 31.96875 49.757812 26.332031 44.132812 26.332031 37.273438 C 26.332031 30.417969 31.96875 24.792969 38.832031 24.792969 Z M 38.832031 24.792969 " fill-opacity="1" fill-rule="evenodd"/><path fill="#ebba16" d="M 72.8125 49.757812 C 79.679688 49.757812 85.3125 44.132812 85.3125 37.273438 C 85.3125 30.417969 79.679688 24.792969 72.8125 24.792969 C 65.945312 24.792969 60.488281 30.417969 60.488281 37.273438 C 60.488281 44.132812 65.945312 49.757812 72.8125 49.757812 Z M 72.8125 49.757812 " fill-opacity="1" fill-rule="evenodd"/><path fill="#dd352e" d="M 38.832031 49.757812 C 45.699219 49.757812 51.15625 44.132812 51.15625 37.273438 C 51.15625 30.417969 45.699219 24.792969 38.832031 24.792969 C 31.96875 24.792969 26.332031 30.417969 26.332031 37.273438 C 26.332031 44.132812 31.96875 49.757812 38.832031 49.757812 Z M 38.832031 49.757812 " fill-opacity="1" fill-rule="evenodd"/><path fill="#23a24d" d="M 94.464844 37.273438 C 94.464844 44.132812 100.101562 49.757812 106.964844 49.757812 C 113.832031 49.757812 119.289062 44.132812 119.289062 37.273438 C 119.289062 30.417969 113.832031 24.792969 106.964844 24.792969 C 100.101562 24.792969 94.464844 30.417969 94.464844 37.273438 Z M 94.464844 37.273438 " fill-opacity="1" fill-rule="evenodd"/><path fill="#59a4f9" d="M 149.921875 32.878906 L 175.980469 77.710938 L 200.449219 77.710938 L 174.394531 32.878906 L 167.175781 20.21875 C 165.59375 17.582031 162.246094 16.703125 159.605469 18.285156 L 150.980469 23.207031 C 148.164062 24.792969 147.28125 28.132812 148.867188 30.769531 Z M 149.921875 32.878906 " fill-opacity="1" fill-rule="evenodd"/><path fill="#3b88f5" d="M 174.394531 32.878906 L 200.449219 77.710938 L 214.007812 77.710938 L 188.128906 32.878906 Z M 174.394531 32.878906 " fill-opacity="1" fill-rule="evenodd"/><path fill="#59a4f9" d="M 188.128906 32.878906 L 214.007812 77.710938 L 238.480469 77.710938 L 212.421875 32.878906 L 205.203125 20.21875 C 203.796875 17.582031 200.273438 16.703125 197.632812 18.285156 L 189.007812 23.207031 C 186.367188 24.792969 185.488281 28.132812 186.894531 30.769531 Z M 188.128906 32.878906 " fill-opacity="1" fill-rule="evenodd"/><path fill="#3b88f5" d="M 212.421875 32.878906 L 238.480469 77.710938 L 287.070312 77.710938 L 287.070312 48.703125 C 287.070312 39.910156 279.851562 32.878906 271.046875 32.878906 Z M 245.167969 48.703125 L 267.351562 48.703125 C 271.046875 48.703125 273.867188 51.691406 273.867188 55.207031 C 273.867188 58.898438 271.046875 61.890625 267.351562 61.890625 L 245.167969 61.890625 C 241.472656 61.890625 238.480469 58.898438 238.480469 55.207031 C 238.480469 51.691406 241.472656 48.703125 245.167969 48.703125 Z M 245.167969 48.703125 " fill-opacity="1" fill-rule="evenodd"/><path fill="#59a4f9" d="M 245.167969 48.703125 C 241.472656 48.703125 238.480469 51.691406 238.480469 55.207031 C 238.480469 58.898438 241.472656 61.890625 245.167969 61.890625 L 267.351562 61.890625 C 271.046875 61.890625 273.867188 58.898438 273.867188 55.207031 C 273.867188 51.691406 271.046875 48.703125 267.351562 48.703125 Z M 245.167969 48.703125 " fill-opacity="1" fill-rule="evenodd"/><g clip-path="url(#1d857021ea)"><path fill="#000000" d="M 245.167969 45.714844 L 267.351562 45.714844 C 275.800781 45.714844 280.203125 55.910156 274.042969 61.890625 C 272.28125 63.648438 269.992188 64.703125 267.351562 64.703125 L 245.167969 64.703125 C 232.667969 64.703125 232.492188 45.714844 245.167969 45.714844 Z M 66.648438 241.222656 C 66.648438 244.914062 60.664062 244.914062 60.664062 241.222656 L 60.664062 183.554688 C 60.664062 179.6875 66.648438 179.6875 66.648438 183.554688 Z M 66.648438 166.148438 C 66.648438 170.015625 60.664062 170.015625 60.664062 166.148438 L 60.664062 152.785156 C 60.664062 149.09375 66.648438 149.09375 66.648438 152.785156 Z M 43.410156 152.785156 C 43.410156 149.09375 49.21875 149.09375 49.21875 152.785156 L 49.21875 210.453125 C 49.21875 214.324219 43.410156 214.324219 43.410156 210.453125 Z M 43.410156 227.859375 C 43.410156 223.992188 49.21875 223.992188 49.21875 227.859375 L 49.21875 241.222656 C 49.21875 244.914062 43.410156 244.914062 43.410156 241.222656 Z M 256.964844 241.222656 C 256.964844 244.914062 251.15625 244.914062 251.15625 241.222656 L 251.15625 183.554688 C 251.15625 179.6875 256.964844 179.6875 256.964844 183.554688 Z M 256.964844 166.148438 C 256.964844 170.015625 251.15625 170.015625 251.15625 166.148438 L 251.15625 152.785156 C 251.15625 149.09375 256.964844 149.09375 256.964844 152.785156 Z M 233.726562 152.785156 C 233.726562 149.09375 239.535156 149.09375 239.535156 152.785156 L 239.535156 210.453125 C 239.535156 214.324219 233.726562 214.324219 233.726562 210.453125 Z M 233.726562 227.859375 C 233.726562 223.992188 239.535156 223.992188 239.535156 227.859375 L 239.535156 241.222656 C 239.535156 244.914062 233.726562 244.914062 233.726562 241.222656 Z M 114.007812 193.050781 C 126.15625 193.050781 126.15625 211.511719 114.007812 211.511719 C 101.683594 211.511719 101.683594 193.050781 114.007812 193.050781 Z M 116.472656 199.90625 C 113.304688 196.742188 108.375 201.488281 111.542969 204.652344 C 114.710938 207.816406 119.640625 203.070312 116.472656 199.90625 Z M 114.007812 229.089844 C 126.15625 229.089844 126.15625 247.726562 114.007812 247.726562 C 101.683594 247.726562 101.683594 229.089844 114.007812 229.089844 Z M 116.472656 235.949219 C 113.304688 232.785156 108.375 237.707031 111.542969 240.871094 C 114.710938 244.035156 119.640625 239.113281 116.472656 235.949219 Z M 114.007812 265.308594 C 126.15625 265.308594 126.15625 283.769531 114.007812 283.769531 C 101.683594 283.769531 101.683594 265.308594 114.007812 265.308594 Z M 116.472656 272.167969 C 113.304688 269.003906 108.375 273.75 111.542969 276.914062 C 114.710938 280.078125 119.640625 275.332031 116.472656 272.167969 Z M 187.597656 102.503906 C 184.957031 99.691406 189.183594 95.644531 191.824219 98.28125 L 206.789062 113.226562 C 208.019531 114.457031 208.019531 116.390625 206.789062 117.445312 L 191.824219 132.390625 C 189.183594 135.203125 184.957031 130.984375 187.597656 128.347656 L 200.628906 115.335938 Z M 108.550781 98.28125 C 111.191406 95.644531 115.417969 99.691406 112.601562 102.503906 L 99.746094 115.335938 L 112.601562 128.347656 C 115.417969 130.984375 111.191406 135.203125 108.550781 132.390625 L 93.410156 117.445312 C 92.355469 116.390625 92.355469 114.457031 93.410156 113.226562 Z M 38.832031 21.976562 C 43.058594 21.976562 46.933594 23.734375 49.574219 26.375 C 59.429688 36.042969 52.390625 52.570312 38.832031 52.570312 C 34.609375 52.570312 30.734375 50.988281 27.917969 48.175781 C 18.234375 38.503906 25.277344 21.976562 38.832031 21.976562 Z M 45.523438 30.59375 C 36.71875 21.800781 23.164062 35.164062 32.144531 43.957031 C 40.945312 52.921875 54.324219 39.382812 45.523438 30.59375 Z M 72.8125 21.976562 C 86.542969 21.976562 93.410156 38.503906 83.726562 48.175781 C 74.042969 57.84375 57.496094 50.988281 57.496094 37.273438 C 57.496094 28.835938 64.359375 21.976562 72.8125 21.976562 Z M 79.5 30.59375 C 70.699219 21.800781 57.320312 35.164062 66.121094 43.957031 C 74.925781 52.921875 88.480469 39.382812 79.5 30.59375 Z M 106.964844 21.976562 C 111.191406 21.976562 115.066406 23.734375 117.707031 26.375 C 127.386719 36.042969 120.523438 52.570312 106.964844 52.570312 C 102.742188 52.570312 98.867188 50.988281 96.050781 48.175781 C 86.367188 38.503906 93.410156 21.976562 106.964844 21.976562 Z M 113.65625 30.59375 C 104.855469 21.800781 91.296875 35.164062 100.277344 43.957031 C 109.078125 52.921875 122.457031 39.382812 113.65625 30.59375 Z M 155.203125 100.921875 C 156.964844 97.578125 162.070312 100.570312 160.132812 103.910156 L 145.171875 129.753906 C 143.234375 133.09375 138.128906 130.28125 140.0625 126.941406 Z M 204.675781 171.773438 L 204.675781 255.640625 L 262.597656 255.640625 C 274.394531 255.640625 284.078125 245.96875 284.078125 234.191406 L 284.078125 80.703125 L 16.121094 80.703125 L 16.121094 234.191406 C 16.121094 245.96875 25.804688 255.640625 37.777344 255.640625 L 95.523438 255.640625 L 95.523438 171.773438 C 95.699219 165.269531 102.210938 159.644531 112.601562 155.777344 C 133.550781 148.214844 166.824219 148.214844 187.597656 155.777344 C 198.164062 159.644531 204.675781 165.269531 204.675781 171.773438 Z M 204.675781 261.441406 L 204.675781 278.496094 C 204.675781 285 198.164062 290.628906 187.597656 294.320312 C 166.824219 301.878906 133.550781 301.878906 112.601562 294.320312 C 102.035156 290.453125 95.699219 285 95.523438 278.320312 L 95.523438 261.441406 L 37.777344 261.441406 C 22.636719 261.441406 10.3125 249.136719 10.3125 234.191406 L 10.3125 13.539062 C 10.3125 6.15625 16.472656 0 23.867188 0 L 115.59375 0 C 123.339844 0 125.453125 6.332031 128.621094 12.132812 L 138.65625 29.890625 L 145.347656 29.890625 C 143.585938 22.152344 151.859375 19.339844 158.023438 15.648438 C 162.070312 13.363281 167.351562 14.769531 169.640625 18.8125 L 176.15625 29.890625 L 183.550781 29.890625 C 181.789062 22.152344 189.886719 19.339844 196.226562 15.648438 C 200.273438 13.363281 205.378906 14.769531 207.84375 18.8125 L 214.183594 29.890625 L 271.046875 29.890625 C 281.4375 29.890625 290.0625 38.328125 290.0625 48.703125 L 290.0625 234.191406 C 290.0625 249.136719 277.738281 261.441406 262.597656 261.441406 Z M 198.867188 278.320312 L 198.867188 253.003906 C 179.324219 268.476562 120.875 268.476562 101.507812 253.003906 L 101.507812 278.320312 C 101.507812 282.1875 106.4375 285.882812 114.710938 288.871094 C 134.078125 295.902344 166.121094 295.902344 185.664062 288.871094 C 193.9375 285.882812 198.867188 282.1875 198.867188 278.320312 Z M 198.867188 242.804688 L 198.867188 217.488281 C 179.324219 232.960938 120.875 232.960938 101.507812 217.488281 L 101.507812 242.804688 C 101.507812 246.671875 106.4375 250.367188 114.710938 253.355469 C 134.078125 260.5625 166.121094 260.5625 185.664062 253.355469 C 193.9375 250.367188 198.867188 246.671875 198.867188 242.804688 Z M 198.867188 207.289062 L 198.867188 181.972656 C 179.324219 197.445312 120.875 197.445312 101.507812 181.972656 L 101.507812 207.289062 C 101.507812 211.160156 106.4375 214.851562 114.710938 217.839844 C 134.078125 225.046875 166.121094 225.046875 185.664062 217.839844 C 193.9375 214.851562 198.867188 211.160156 198.867188 207.289062 Z M 185.664062 161.226562 C 143.410156 145.929688 71.753906 166.851562 114.710938 182.324219 C 156.964844 197.796875 228.621094 176.875 185.664062 161.226562 Z M 58.550781 90.019531 L 241.648438 90.019531 C 248.335938 90.019531 253.621094 95.46875 253.621094 101.976562 L 253.621094 128.875 C 253.621094 132.039062 252.386719 135.027344 250.097656 137.140625 C 247.984375 139.425781 244.992188 140.65625 241.648438 140.65625 L 58.550781 140.65625 C 52.039062 140.65625 46.578125 135.378906 46.578125 128.875 L 46.578125 101.976562 C 46.578125 98.632812 47.988281 95.644531 50.101562 93.535156 C 52.390625 91.425781 55.382812 90.019531 58.550781 90.019531 Z M 241.648438 95.820312 L 58.550781 95.820312 C 56.96875 95.820312 55.382812 96.523438 54.324219 97.753906 C 53.269531 98.808594 52.566406 100.21875 52.566406 101.976562 L 52.566406 128.875 C 52.566406 132.214844 55.207031 134.851562 58.550781 134.851562 L 241.648438 134.851562 C 243.40625 134.851562 244.992188 134.148438 246.050781 133.09375 C 247.105469 132.039062 247.808594 130.457031 247.808594 128.875 L 247.808594 101.976562 C 247.808594 98.632812 244.992188 95.820312 241.648438 95.820312 Z M 16.121094 44.308594 L 16.121094 74.722656 L 170.875 74.722656 L 148.339844 35.691406 L 137.070312 35.691406 C 135.839844 35.691406 134.78125 34.988281 134.429688 34.109375 L 122.28125 12.660156 C 120.523438 9.144531 118.761719 5.804688 115.59375 5.804688 L 23.867188 5.804688 C 19.644531 5.804688 16.121094 9.320312 16.121094 13.539062 Z M 177.5625 74.722656 L 195.34375 74.722656 L 164.710938 21.800781 C 163.832031 20.570312 162.246094 20.042969 161.015625 20.746094 C 157.847656 22.679688 151.683594 25.320312 151.15625 27.429688 C 150.804688 28.835938 151.859375 30.066406 152.5625 31.472656 Z M 202.035156 74.722656 L 208.902344 74.722656 L 186.367188 35.691406 L 179.5 35.691406 Z M 215.769531 74.722656 L 233.375 74.722656 L 202.738281 21.800781 C 202.035156 20.570312 200.273438 20.042969 199.042969 20.746094 C 196.050781 22.503906 189.710938 25.496094 189.183594 27.429688 C 188.832031 28.835938 189.886719 30.066406 190.769531 31.472656 Z M 240.0625 74.722656 L 284.078125 74.722656 L 284.078125 48.703125 C 284.078125 41.667969 278.265625 35.691406 271.046875 35.691406 L 217.527344 35.691406 Z M 267.351562 51.691406 L 245.167969 51.691406 C 240.238281 51.691406 240.414062 58.898438 245.167969 58.898438 L 267.351562 58.898438 C 272.105469 58.898438 272.105469 51.691406 267.351562 51.691406 Z M 267.351562 51.691406 " fill-opacity="1" fill-rule="nonzero"/></g></svg>