<svg xmlns="http://www.w3.org/2000/svg" xmlns:xlink="http://www.w3.org/1999/xlink" width="400" zoomAndPan="magnify" viewBox="0 0 300 299.999988" height="400" preserveAspectRatio="xMidYMid meet" version="1.0"><path fill="#3c58a0" d="M 269.773438 300 L 30.226562 300 C 13.53125 300 0 286.46875 0 269.773438 L 0 78.558594 C 0 76.625 1.582031 75.042969 3.515625 75.042969 L 191.035156 75.042969 C 203.691406 75.042969 204.394531 70.121094 205.449219 62.214844 C 206.679688 53.074219 208.261719 40.773438 232.335938 40.773438 L 296.484375 40.773438 C 298.417969 40.773438 300 42.355469 300 44.289062 L 300 269.773438 C 300 286.46875 286.46875 300 269.773438 300 Z M 269.773438 300 " fill-opacity="1" fill-rule="evenodd"/><path fill="#deeeff" d="M 292.96875 47.804688 L 232.335938 47.804688 C 227.242188 47.804688 219.332031 48.332031 215.640625 52.546875 C 213.355469 55.359375 212.828125 59.578125 212.476562 63.09375 C 211.773438 67.3125 211.246094 71.703125 208.613281 75.21875 C 204.570312 81.019531 197.539062 82.074219 191.035156 82.074219 L 7.03125 82.074219 L 7.03125 269.773438 C 7.03125 282.601562 17.398438 292.96875 30.226562 292.96875 L 269.773438 292.96875 C 282.601562 292.96875 292.96875 282.601562 292.96875 269.773438 Z M 292.96875 47.804688 " fill-opacity="1" fill-rule="evenodd"/><path fill="#3c58a0" d="M 191.035156 82.074219 L 3.515625 82.074219 C 1.582031 82.074219 0 80.492188 0 78.558594 L 0 30.226562 C 0 13.53125 13.53125 0 30.226562 0 L 269.773438 0 C 286.46875 0 300 13.53125 300 30.226562 L 300 44.289062 C 300 46.222656 298.417969 47.804688 296.484375 47.804688 L 232.335938 47.804688 C 214.410156 47.804688 213.707031 54.128906 212.476562 63.09375 C 211.421875 71 209.84375 82.074219 191.035156 82.074219 Z M 191.035156 82.074219 " fill-opacity="1" fill-rule="evenodd"/><path fill="#2c4075" d="M 185.941406 53.953125 C 183.832031 53.953125 182.425781 52.371094 182.425781 50.4375 L 182.425781 44.464844 L 176.273438 44.464844 C 174.339844 44.464844 172.757812 42.882812 172.757812 40.949219 C 172.757812 39.015625 174.339844 37.433594 176.273438 37.433594 L 182.25 37.433594 L 182.25 31.457031 C 182.25 29.527344 183.832031 27.945312 185.765625 27.945312 C 187.875 27.945312 189.28125 29.527344 189.28125 31.457031 L 189.28125 37.433594 L 195.253906 37.433594 C 197.363281 37.433594 198.769531 39.015625 198.769531 40.949219 C 198.769531 42.882812 197.363281 44.464844 195.253906 44.464844 L 189.28125 44.464844 L 189.28125 50.4375 C 189.457031 52.371094 187.875 53.953125 185.941406 53.953125 Z M 185.941406 53.953125 " fill-opacity="1" fill-rule="evenodd"/><path fill="#9fd365" d="M 149.5625 61.511719 L 135.324219 61.511719 C 127.945312 61.511719 121.96875 55.535156 121.96875 48.15625 L 121.96875 33.917969 C 121.96875 26.539062 127.945312 20.5625 135.324219 20.5625 L 149.5625 20.5625 C 156.941406 20.5625 162.917969 26.539062 162.917969 33.917969 L 162.917969 48.15625 C 162.917969 55.535156 156.941406 61.511719 149.5625 61.511719 Z M 149.5625 61.511719 " fill-opacity="1" fill-rule="evenodd"/><path fill="#ffd659" d="M 99.648438 61.511719 L 85.589844 61.511719 C 78.207031 61.511719 72.054688 55.535156 72.054688 48.15625 L 72.054688 33.917969 C 72.054688 26.539062 78.207031 20.5625 85.589844 20.5625 L 99.648438 20.5625 C 107.03125 20.5625 113.179688 26.539062 113.179688 33.917969 L 113.179688 48.15625 C 113.179688 55.535156 107.03125 61.511719 99.648438 61.511719 Z M 99.648438 61.511719 " fill-opacity="1" fill-rule="evenodd"/><path fill="#f06b62" d="M 49.914062 61.511719 L 35.675781 61.511719 C 28.296875 61.511719 22.320312 55.535156 22.320312 48.15625 L 22.320312 33.917969 C 22.320312 26.539062 28.296875 20.5625 35.675781 20.5625 L 49.914062 20.5625 C 57.292969 20.5625 63.269531 26.539062 63.269531 33.917969 L 63.269531 48.15625 C 63.269531 55.535156 57.292969 61.511719 49.914062 61.511719 Z M 49.914062 61.511719 " fill-opacity="1" fill-rule="evenodd"/><path fill="#26b99a" d="M 111.246094 182.074219 L 33.390625 182.074219 C 25.484375 182.074219 19.15625 175.746094 19.15625 167.839844 L 19.15625 109.84375 C 19.15625 101.933594 25.484375 95.429688 33.390625 95.429688 L 111.246094 95.429688 C 119.15625 95.429688 125.660156 101.933594 125.660156 109.84375 L 125.660156 167.839844 C 125.660156 175.746094 119.15625 182.074219 111.246094 182.074219 Z M 111.246094 182.074219 " fill-opacity="1" fill-rule="evenodd"/><path fill="#fe9d30" d="M 111.246094 279.4375 L 33.390625 279.4375 C 25.484375 279.4375 19.15625 273.109375 19.15625 265.203125 L 19.15625 207.207031 C 19.15625 199.296875 25.484375 192.792969 33.390625 192.792969 L 111.246094 192.792969 C 119.15625 192.792969 125.660156 199.296875 125.660156 207.207031 L 125.660156 265.203125 C 125.660156 273.109375 119.15625 279.4375 111.246094 279.4375 Z M 111.246094 279.4375 " fill-opacity="1" fill-rule="evenodd"/><path fill="#30acff" d="M 186.644531 182.074219 L 146.574219 182.074219 C 142.53125 182.074219 139.191406 178.910156 139.191406 174.691406 L 139.191406 154.304688 C 139.191406 150.085938 142.53125 146.925781 146.574219 146.925781 L 186.644531 146.925781 C 190.683594 146.925781 193.847656 150.085938 193.847656 154.304688 L 193.847656 174.691406 C 193.847656 178.910156 190.683594 182.074219 186.644531 182.074219 Z M 277.328125 102.460938 L 142.707031 102.460938 C 140.773438 102.460938 139.191406 100.878906 139.191406 98.945312 C 139.191406 97.011719 140.773438 95.429688 142.707031 95.429688 L 277.328125 95.429688 C 279.261719 95.429688 280.84375 97.011719 280.84375 98.945312 C 280.84375 100.878906 279.261719 102.460938 277.328125 102.460938 Z M 277.328125 122.320312 L 142.707031 122.320312 C 140.773438 122.320312 139.191406 120.738281 139.191406 118.804688 C 139.191406 116.871094 140.773438 115.289062 142.707031 115.289062 L 277.328125 115.289062 C 279.261719 115.289062 280.84375 116.871094 280.84375 118.804688 C 280.84375 120.738281 279.261719 122.320312 277.328125 122.320312 Z M 277.328125 142.355469 L 142.707031 142.355469 C 140.773438 142.355469 139.191406 140.773438 139.191406 138.839844 C 139.191406 136.90625 140.773438 135.324219 142.707031 135.324219 L 277.328125 135.324219 C 279.261719 135.324219 280.84375 136.90625 280.84375 138.839844 C 280.84375 140.773438 279.261719 142.355469 277.328125 142.355469 Z M 277.328125 162.214844 L 205.273438 162.214844 C 203.339844 162.214844 201.757812 160.632812 201.757812 158.699219 C 201.757812 156.765625 203.339844 155.183594 205.273438 155.183594 L 277.328125 155.183594 C 279.261719 155.183594 280.84375 156.765625 280.84375 158.699219 C 280.84375 160.632812 279.261719 162.214844 277.328125 162.214844 Z M 277.328125 182.074219 L 205.273438 182.074219 C 203.339844 182.074219 201.757812 180.492188 201.757812 178.558594 C 201.757812 176.625 203.339844 175.042969 205.273438 175.042969 L 277.328125 175.042969 C 279.261719 175.042969 280.84375 176.625 280.84375 178.558594 C 280.84375 180.492188 279.261719 182.074219 277.328125 182.074219 Z M 277.328125 182.074219 " fill-opacity="1" fill-rule="evenodd"/><path fill="#f3564f" d="M 266.433594 279.4375 L 153.601562 279.4375 C 145.695312 279.4375 139.191406 273.109375 139.191406 265.203125 L 139.191406 207.207031 C 139.191406 199.296875 145.695312 192.792969 153.601562 192.792969 L 266.433594 192.792969 C 274.339844 192.792969 280.84375 199.296875 280.84375 207.207031 L 280.84375 265.203125 C 280.84375 273.109375 274.339844 279.4375 266.433594 279.4375 Z M 266.433594 279.4375 " fill-opacity="1" fill-rule="evenodd"/><path fill="#ebebeb" d="M 197.011719 260.28125 C 192.617188 260.28125 188.753906 257.117188 188.050781 252.722656 C 187.699219 251.140625 187.875 220.738281 187.875 220.386719 C 188.226562 215.640625 192.265625 211.949219 197.011719 211.949219 C 198.769531 211.949219 200.527344 212.476562 201.933594 213.355469 L 227.59375 228.296875 C 230.402344 229.878906 232.160156 232.863281 232.160156 236.203125 C 232.160156 239.542969 230.402344 242.53125 227.59375 244.113281 L 201.582031 259.050781 C 200.175781 259.929688 198.59375 260.28125 197.011719 260.28125 Z M 197.011719 260.28125 " fill-opacity="1" fill-rule="evenodd"/></svg>