<svg xmlns="http://www.w3.org/2000/svg" xmlns:xlink="http://www.w3.org/1999/xlink" width="400" zoomAndPan="magnify" viewBox="0 0 300 299.999988" height="400" preserveAspectRatio="xMidYMid meet" version="1.0"><path fill="#000000" d="M 290 160 C 295.519531 160 300 155.519531 300 150 C 300 144.480469 295.519531 140 290 140 L 260 140 L 260 120 L 290 120 C 295.519531 120 300 115.519531 300 110 C 300 104.480469 295.519531 100 290 100 L 260 100 L 260 70 C 260 53.460938 246.539062 40 230 40 L 200 40 L 200 10 C 200 4.480469 195.519531 0 190 0 C 184.480469 0 180 4.480469 180 10 L 180 40 L 160 40 L 160 10 C 160 4.480469 155.519531 0 150 0 C 144.480469 0 140 4.480469 140 10 L 140 40 L 120 40 L 120 10 C 120 4.480469 115.519531 0 110 0 C 104.480469 0 100 4.480469 100 10 L 100 40 L 70 40 C 53.460938 40 40 53.460938 40 70 L 40 100 L 10 100 C 4.480469 100 0 104.480469 0 110 C 0 115.519531 4.480469 120 10 120 L 40 120 L 40 140 L 10 140 C 4.480469 140 0 144.480469 0 150 C 0 155.519531 4.480469 160 10 160 L 40 160 L 40 180 L 10 180 C 4.480469 180 0 184.480469 0 190 C 0 195.519531 4.480469 200 10 200 L 40 200 L 40 230 C 40 246.539062 53.460938 260 70 260 L 100 260 L 100 290 C 100 295.519531 104.480469 300 110 300 C 115.519531 300 120 295.519531 120 290 L 120 260 L 140 260 L 140 290 C 140 295.519531 144.480469 300 150 300 C 155.519531 300 160 295.519531 160 290 L 160 260 L 180 260 L 180 290 C 180 295.519531 184.480469 300 190 300 C 195.519531 300 200 295.519531 200 290 L 200 260 L 230 260 C 246.539062 260 260 246.539062 260 230 L 260 200 L 290 200 C 295.519531 200 300 195.519531 300 190 C 300 184.480469 295.519531 180 290 180 L 260 180 L 260 160 Z M 240 230 C 240 235.511719 235.511719 240 230 240 L 70 240 C 64.488281 240 60 235.511719 60 230 L 60 70 C 60 64.488281 64.488281 60 70 60 L 230 60 C 235.511719 60 240 64.488281 240 70 Z M 100 120 L 100 190 C 100 195.519531 95.519531 200 90 200 C 84.480469 200 80 195.519531 80 190 L 80 120 C 80 114.480469 84.480469 110 90 110 C 95.519531 110 100 114.480469 100 120 Z M 140 140 C 123.460938 140 110 153.460938 110 170 C 110 186.539062 123.460938 200 140 200 C 156.539062 200 170 186.539062 170 170 C 170 153.460938 156.539062 140 140 140 Z M 140 180 C 134.488281 180 130 175.511719 130 170 C 130 164.488281 134.488281 160 140 160 C 145.511719 160 150 164.488281 150 170 C 150 175.511719 145.511719 180 140 180 Z M 220 120 C 220 125.519531 215.519531 130 210 130 L 200 130 L 200 190 C 200 195.519531 195.519531 200 190 200 C 184.480469 200 180 195.519531 180 190 L 180 130 L 170 130 C 164.480469 130 160 125.519531 160 120 C 160 114.480469 164.480469 110 170 110 L 210 110 C 215.519531 110 220 114.480469 220 120 Z M 220 120 " fill-opacity="1" fill-rule="nonzero"/></svg>