<svg xmlns="http://www.w3.org/2000/svg" xmlns:xlink="http://www.w3.org/1999/xlink" width="400" zoomAndPan="magnify" viewBox="0 0 300 299.999988" height="400" preserveAspectRatio="xMidYMid meet" version="1.0"><path fill="#333333" d="M 109.753906 254.480469 C 109.050781 254.480469 108.523438 254.304688 107.996094 254.128906 C 106.238281 253.074219 105.710938 250.964844 106.589844 249.210938 L 141.210938 189.28125 C 142.265625 187.523438 144.375 186.996094 146.132812 188.050781 C 147.714844 188.929688 148.417969 191.035156 147.363281 192.792969 L 112.742188 252.722656 C 112.039062 253.953125 110.984375 254.480469 109.753906 254.480469 Z M 109.753906 254.480469 " fill-opacity="1" fill-rule="evenodd"/><path fill="#333333" d="M 250.175781 238.839844 C 249.296875 238.839844 248.417969 238.488281 247.714844 237.785156 L 198.683594 188.753906 C 197.277344 187.347656 197.277344 185.238281 198.683594 183.832031 C 200.085938 182.425781 202.371094 182.425781 203.601562 183.832031 L 252.636719 232.863281 C 254.042969 234.09375 254.042969 236.378906 252.636719 237.785156 C 251.933594 238.488281 251.054688 238.839844 250.175781 238.839844 Z M 250.175781 238.839844 " fill-opacity="1" fill-rule="evenodd"/><path fill="#00ccb3" d="M 179 174.515625 C 178.121094 174.515625 177.066406 173.988281 176.363281 173.285156 C 174.78125 171.175781 172.320312 170.121094 169.683594 170.121094 C 167.046875 170.121094 164.585938 171.175781 163.003906 173.285156 C 161.773438 174.691406 159.492188 174.867188 158.085938 173.636719 C 156.503906 172.40625 156.328125 170.121094 157.558594 168.71875 C 160.71875 165.027344 165.113281 163.09375 169.683594 163.09375 C 174.253906 163.09375 178.648438 165.027344 181.808594 168.71875 C 183.039062 170.121094 182.863281 172.40625 181.28125 173.636719 C 180.753906 174.164062 179.878906 174.515625 179 174.515625 Z M 179 174.515625 " fill-opacity="1" fill-rule="evenodd"/><path fill="#00ccb3" d="M 152.988281 167.136719 C 152.109375 167.136719 151.230469 166.785156 150.527344 166.082031 C 149.121094 164.851562 148.945312 162.566406 150.351562 161.160156 C 155.273438 155.710938 162.300781 152.546875 169.683594 152.546875 C 177.066406 152.546875 184.09375 155.710938 189.015625 161.160156 C 190.421875 162.566406 190.246094 164.851562 188.839844 166.082031 C 187.433594 167.488281 185.148438 167.3125 183.917969 165.90625 C 180.226562 161.863281 175.132812 159.578125 169.683594 159.578125 C 164.234375 159.578125 159.140625 161.863281 155.449219 165.90625 C 154.746094 166.609375 153.867188 167.136719 152.988281 167.136719 Z M 152.988281 167.136719 " fill-opacity="1" fill-rule="evenodd"/><path fill="#00ccb3" d="M 194.816406 158.699219 C 193.9375 158.699219 192.882812 158.347656 192.179688 157.644531 C 186.378906 151.316406 178.296875 147.804688 169.683594 147.804688 C 161.070312 147.804688 152.988281 151.316406 147.1875 157.644531 C 145.78125 159.050781 143.496094 159.050781 142.089844 157.820312 C 140.683594 156.414062 140.683594 154.128906 142.089844 152.722656 C 149.121094 145.167969 159.316406 140.773438 169.683594 140.773438 C 180.226562 140.773438 190.070312 144.992188 197.277344 152.722656 C 198.683594 154.128906 198.683594 156.414062 197.277344 157.820312 C 196.574219 158.347656 195.695312 158.699219 194.816406 158.699219 Z M 194.816406 158.699219 " fill-opacity="1" fill-rule="evenodd"/><path fill="#00ccb3" d="M 203.425781 150.085938 C 202.371094 150.085938 201.492188 149.738281 200.789062 149.035156 C 192.53125 140.597656 181.457031 135.851562 169.683594 135.851562 C 157.910156 135.851562 146.835938 140.597656 138.578125 149.035156 C 137.171875 150.4375 135.0625 150.613281 133.65625 149.210938 C 132.25 147.804688 132.074219 145.695312 133.480469 144.289062 C 142.96875 134.269531 155.976562 128.824219 169.683594 128.824219 C 183.566406 128.824219 196.398438 134.269531 205.886719 144.289062 C 207.292969 145.695312 207.117188 147.804688 205.710938 149.210938 C 205.007812 149.914062 204.304688 150.085938 203.425781 150.085938 Z M 203.425781 150.085938 " fill-opacity="1" fill-rule="evenodd"/><path fill="#333333" d="M 169.683594 201.933594 C 141.914062 201.933594 119.246094 179.4375 119.246094 151.667969 C 119.246094 123.902344 141.914062 101.230469 169.683594 101.230469 C 197.453125 101.230469 220.121094 123.902344 220.121094 151.667969 C 220.121094 179.4375 197.453125 201.933594 169.683594 201.933594 Z M 169.683594 108.261719 C 145.78125 108.261719 126.273438 127.769531 126.273438 151.667969 C 126.273438 175.570312 145.78125 194.902344 169.683594 194.902344 C 193.585938 194.902344 213.09375 175.570312 213.09375 151.667969 C 213.09375 127.769531 193.585938 108.261719 169.683594 108.261719 Z M 169.683594 108.261719 " fill-opacity="1" fill-rule="evenodd"/><path fill="#333333" d="M 204.304688 123.550781 C 203.425781 123.550781 202.546875 123.199219 201.84375 122.496094 C 200.4375 121.265625 200.4375 118.980469 201.84375 117.574219 L 250.878906 68.71875 C 252.285156 67.3125 254.394531 67.3125 255.800781 68.71875 C 257.207031 69.949219 257.207031 72.230469 255.800781 73.636719 L 206.941406 122.496094 C 206.238281 123.199219 205.359375 123.550781 204.304688 123.550781 Z M 204.304688 123.550781 " fill-opacity="1" fill-rule="evenodd"/><path fill="#333333" d="M 123.109375 149.5625 L 53.867188 149.5625 C 51.933594 149.5625 50.351562 147.980469 50.351562 146.046875 C 50.351562 144.113281 51.933594 142.53125 53.867188 142.53125 L 123.109375 142.53125 C 125.042969 142.53125 126.625 144.113281 126.625 146.046875 C 126.625 147.980469 125.042969 149.5625 123.109375 149.5625 Z M 123.109375 149.5625 " fill-opacity="1" fill-rule="evenodd"/><path fill="#333333" d="M 150.351562 112.476562 C 149.121094 112.476562 147.890625 111.773438 147.363281 110.71875 L 112.566406 50.613281 C 111.6875 49.035156 112.214844 46.925781 113.972656 45.871094 C 115.554688 44.992188 117.839844 45.519531 118.71875 47.101562 L 153.339844 107.207031 C 154.394531 108.789062 153.691406 110.894531 152.109375 111.949219 C 151.582031 112.300781 150.878906 112.476562 150.351562 112.476562 Z M 150.351562 112.476562 " fill-opacity="1" fill-rule="evenodd"/><path fill="#00ccb3" d="M 270.5625 81.722656 C 255.273438 81.722656 242.792969 69.246094 242.792969 53.953125 C 242.792969 38.488281 255.273438 26.011719 270.5625 26.011719 C 285.851562 26.011719 298.332031 38.488281 298.332031 53.953125 C 298.332031 69.246094 285.851562 81.722656 270.5625 81.722656 Z M 103.601562 55.710938 C 88.136719 55.710938 75.660156 43.234375 75.660156 27.945312 C 75.660156 12.476562 88.136719 0 103.601562 0 C 118.894531 0 131.371094 12.476562 131.371094 27.945312 C 131.371094 43.234375 118.894531 55.710938 103.601562 55.710938 Z M 29.613281 173.8125 C 14.148438 173.8125 1.667969 161.335938 1.667969 146.046875 C 1.667969 130.753906 14.148438 118.101562 29.613281 118.101562 C 44.902344 118.101562 57.382812 130.753906 57.382812 146.046875 C 57.382812 161.335938 44.902344 173.8125 29.613281 173.8125 Z M 97.453125 300 C 84.972656 300 73.902344 291.386719 70.5625 279.261719 C 66.695312 264.5 75.484375 249.210938 90.246094 245.167969 C 92.707031 244.464844 95.167969 244.289062 97.628906 244.289062 C 110.105469 244.289062 121.175781 252.722656 124.339844 264.851562 C 126.273438 272.054688 125.394531 279.613281 121.703125 285.941406 C 117.839844 292.441406 111.863281 297.011719 104.65625 298.945312 C 102.371094 299.648438 99.914062 300 97.453125 300 Z M 267.398438 280.316406 C 252.109375 280.316406 239.457031 267.839844 239.457031 252.546875 C 239.457031 237.082031 252.109375 224.605469 267.398438 224.605469 C 282.6875 224.605469 295.167969 237.082031 295.167969 252.546875 C 295.167969 267.839844 282.6875 280.316406 267.398438 280.316406 Z M 267.398438 280.316406 " fill-opacity="1" fill-rule="evenodd"/></svg>